<svg width="24" height="25" viewBox="0 0 24 25" fill="none" xmlns="http://www.w3.org/2000/svg">
<g clip-path="url(#clip0_110_293676)">
<path d="M21.8906 24.2292H2.10938C0.944391 24.2292 0 23.2849 0 22.1199V7.30714L1.40625 5.90112H22.5938L24 7.30714V22.1199C24 23.2849 23.0556 24.2292 21.8906 24.2292Z" fill="#FCB33B"/>
<path d="M12 5.90112V24.2292H21.8906C23.0556 24.2292 24 23.2849 24 22.1199V7.30714L22.5938 5.90112H12Z" fill="#F69838"/>
<path d="M24 7.30737H0L2.28211 1.5552C2.60245 0.754389 3.37809 0.229248 4.24059 0.229248H19.7594C20.6219 0.229248 21.3975 0.754389 21.7178 1.5552L24 7.30737Z" fill="#FFDE33"/>
<path d="M19.7594 0.229248H12V7.30737H24L21.7178 1.55515C21.3975 0.754342 20.6219 0.229248 19.7594 0.229248Z" fill="#FFBC33"/>
<path d="M9.1875 21.4167H3.51562C3.12698 21.4167 2.8125 21.1023 2.8125 20.7136V17.9011C2.8125 17.5125 3.12698 17.198 3.51562 17.198H9.1875C9.57614 17.198 9.89062 17.5125 9.89062 17.9011V20.7136C9.89062 21.1023 9.57614 21.4167 9.1875 21.4167Z" fill="#E6EEFF"/>
<path d="M20.4844 21.417H16.2188C15.8301 21.417 15.5156 21.1025 15.5156 20.7139C15.5156 20.3252 15.8301 20.0107 16.2188 20.0107H20.4844C20.873 20.0107 21.1875 20.3252 21.1875 20.7139C21.1875 21.1025 20.873 21.417 20.4844 21.417Z" fill="#994D4D"/>
<path d="M17.625 18.6045C17.4451 18.6045 17.2652 18.5358 17.1279 18.3985L15.7216 16.9922C15.447 16.7176 15.447 16.2726 15.7216 15.998C15.9962 15.7233 16.4412 15.7233 16.7159 15.998L17.625 16.9071L19.9872 14.5917C20.2619 14.3171 20.7069 14.3171 20.9815 14.5917C21.2561 14.8664 21.2561 15.3113 20.9815 15.586L18.169 18.3985C18.0317 18.5358 17.8049 18.6045 17.625 18.6045Z" fill="#994D4D"/>
<path d="M13.9549 5.90112H10.0335L8.48438 7.30737V13.6824C8.48438 14.1924 9.01964 14.5465 9.50198 14.3113L12 13.0623L14.498 14.3113C14.9692 14.5453 15.5156 14.2016 15.5156 13.6824V7.30737L13.9549 5.90112Z" fill="#FFDFB3"/>
<path d="M12 5.90112V13.0623L14.498 14.3113C14.9692 14.5453 15.5156 14.2016 15.5156 13.6824V7.30737L13.9549 5.90112H12Z" fill="#FFCF99"/>
<path d="M15.5156 7.30737H8.48438L9.77756 0.794467C9.84333 0.465826 10.1319 0.229248 10.467 0.229248H13.533C13.8681 0.229248 14.1567 0.465826 14.2224 0.794467L15.5156 7.30737Z" fill="#FFEACC"/>
<path d="M13.533 0.229248H12V7.30737H15.5156L14.2224 0.79442C14.1567 0.465779 13.8681 0.229248 13.533 0.229248Z" fill="#FFDBB3"/>
</g>
<defs>
<clipPath id="clip0_110_293676">
<rect width="24" height="24" fill="white" transform="translate(0 0.229492)"/>
</clipPath>
</defs>
</svg>
