<svg width="16" height="17" viewBox="0 0 16 17" fill="none" xmlns="http://www.w3.org/2000/svg">
<path d="M5.00024 8.22961V4.22961C5.00024 2.57532 6.34595 1.22961 8.00024 1.22961C9.65454 1.22961 11.0002 2.57532 11.0002 4.22961V8.22961C11.0002 9.88391 9.65454 11.2296 8.00024 11.2296C6.34595 11.2296 5.00024 9.88391 5.00024 8.22961ZM12.5002 7.22961C12.2241 7.22961 12.0002 7.45349 12.0002 7.72961V8.22961C12.0002 10.4352 10.2058 12.2296 8.00024 12.2296C5.79468 12.2296 4.00024 10.4352 4.00024 8.22961V7.72961C4.00024 7.45349 3.77637 7.22961 3.50024 7.22961C3.22412 7.22961 3.00024 7.45349 3.00024 7.72961V8.22961C3.00024 10.8179 4.97708 12.9526 7.50024 13.2043V14.2296H5.93774C5.66162 14.2296 5.43774 14.4535 5.43774 14.7296C5.43774 15.0057 5.66162 15.2296 5.93774 15.2296H8.00024H10.2815C10.5576 15.2296 10.7815 15.0057 10.7815 14.7296C10.7815 14.4535 10.5576 14.2296 10.2815 14.2296H8.50024V13.2043C11.0234 12.9526 13.0002 10.8179 13.0002 8.22961V7.72961C13.0002 7.45349 12.7764 7.22961 12.5002 7.22961Z" fill="white"/>
</svg>
