<svg width="24" height="25" viewBox="0 0 24 25" fill="none" xmlns="http://www.w3.org/2000/svg">
<g clip-path="url(#clip0_110_293717)">
<path d="M23.665 13.2635C23.6298 12.551 23.365 11.8685 22.93 11.3022C21.949 10.025 21.7577 9.01091 21.7577 9.01091C20.9875 6.99263 20.3027 5.64784 19.7995 4.79433C19.2699 3.89804 18.3542 3.29431 17.3214 3.16157C15.2446 2.89308 8.75395 2.89308 6.67718 3.16157C5.64515 3.29509 4.72938 3.89882 4.19985 4.79433C3.69657 5.64784 3.0126 6.99263 2.24156 9.01091C2.24156 9.01091 2.05032 10.025 1.06929 11.3022C0.635046 11.8685 0.36951 12.551 0.335043 13.2635C0.260791 14.8093 0.708573 15.149 1.10908 18.6471C1.1406 18.9224 1.37307 19.1294 1.65059 19.1294H22.3503C22.6278 19.1294 22.8603 18.9216 22.8918 18.6471C23.0043 17.6661 23.3381 15.6763 23.3381 15.6763C23.6305 14.6871 23.6943 13.8808 23.665 13.2635Z" fill="#E95353"/>
<path d="M21.3218 8.92995C20.7143 7.40967 20.0947 6.08214 19.4783 5.02386C19.011 4.22357 18.1867 3.66485 17.2747 3.54259C15.1934 3.26657 8.79207 3.26884 6.72574 3.54259C5.81374 3.66485 4.98943 4.22362 4.52216 5.02386C3.89741 6.09562 3.26965 7.44114 2.67114 8.92995C8.87826 9.41819 15.1139 9.41819 21.3218 8.92995Z" fill="#168DE2"/>
<path d="M20.4406 10.688C20.2036 10.7622 19.9831 10.8665 19.7986 10.97C19.4626 11.1575 19.1176 11.3323 18.7576 11.4688C18.1606 11.6953 18.0593 12.0335 18.0593 12.0335C18.0413 12.0568 18.0241 12.0801 18.0075 12.104C17.5545 12.7768 18.1493 13.6723 18.9526 13.5583C20.1143 13.3941 21.0713 13.0573 21.5574 12.8623C21.8356 12.7505 22.0531 12.5181 22.1244 12.2263C22.1311 12.1985 22.1371 12.1708 22.1423 12.1438C22.3209 11.1808 21.3759 10.3962 20.4406 10.688Z" fill="white"/>
<path d="M21.6819 16.0784H20.3896C20.1953 16.0784 20.0978 16.3131 20.2351 16.4511L21.5274 17.7434C21.6646 17.8807 21.9001 17.7832 21.9001 17.5889V16.2966C21.9001 16.1759 21.8026 16.0784 21.6819 16.0784Z" fill="#FFE21F"/>
<path d="M22.8916 18.6456C22.8601 18.9217 22.6268 19.1294 22.3494 19.1294H19.863V20.5724C19.863 21.0832 20.277 21.4979 20.7886 21.4979H22.3501C22.8609 21.4979 23.2757 21.084 23.2757 20.5724V16.0551C23.1729 16.6806 22.9734 17.9309 22.8916 18.6456Z" fill="#454545"/>
<path d="M23.9822 7.91958C23.9071 7.58357 23.5914 7.35559 23.2471 7.35559H22.6231C22.2233 7.35559 21.8994 7.67962 21.8994 8.07935V8.52409H21.5686L21.7583 8.97487H22.4859C22.8624 8.97487 23.2352 8.89385 23.5772 8.73713C23.8854 8.59611 24.0579 8.2586 23.9822 7.91958Z" fill="#ED6262"/>
<path d="M20.8502 12.7633C21.3527 12.7633 21.76 12.356 21.76 11.8535C21.76 11.351 21.3527 10.9437 20.8502 10.9437C20.3478 10.9437 19.9404 11.351 19.9404 11.8535C19.9404 12.356 20.3478 12.7633 20.8502 12.7633Z" fill="#FFBD49"/>
<path d="M19.0201 13.2395C19.3891 13.2395 19.6883 12.9403 19.6883 12.5712C19.6883 12.2021 19.3891 11.903 19.0201 11.903C18.651 11.903 18.3518 12.2021 18.3518 12.5712C18.3518 12.9403 18.651 13.2395 19.0201 13.2395Z" fill="#FFDB6F"/>
<path d="M17.2882 12.572L16.2434 14.3915H7.75622L6.71143 12.572H17.2882Z" fill="#6F6F6F"/>
<path d="M5.99153 12.104C5.97577 12.0801 5.95851 12.0568 5.93976 12.0336C5.93976 12.0336 5.83848 11.6953 5.24147 11.4688C4.88148 11.3323 4.53719 11.1575 4.20045 10.97C4.01521 10.8665 3.79545 10.7622 3.55844 10.688C2.62391 10.3955 1.67817 11.1807 1.85592 12.1438C1.86119 12.1715 1.86718 12.1985 1.87318 12.2263C1.94443 12.518 2.16192 12.7505 2.44017 12.8623C2.92619 13.0573 3.88319 13.3941 5.04574 13.5583C5.84975 13.6723 6.44453 12.7768 5.99153 12.104Z" fill="white"/>
<path d="M3.61017 16.0784H2.31787C2.19711 16.0784 2.09961 16.1759 2.09961 16.2966V17.5889C2.09961 17.7832 2.33513 17.8807 2.47237 17.7434L3.76466 16.4511C3.9019 16.3139 3.8044 16.0784 3.61017 16.0784Z" fill="#FFE21F"/>
<path d="M20.604 18.3337C19.2585 16.0056 17.7112 16.0784 17.7112 16.0784H6.28769C6.28769 16.0784 4.74116 16.0056 3.39487 18.3337H1.06909L1.09761 18.6337C1.12386 18.9157 1.35938 19.1295 1.64135 19.1295H22.3583C22.6404 19.1295 22.8758 18.9157 22.9021 18.6337L22.9306 18.3337L20.604 18.3337Z" fill="#777777"/>
<path d="M1.65038 19.1302C1.37286 19.1302 1.13961 18.9217 1.10814 18.6464C1.0264 17.9317 0.82612 16.6807 0.724121 16.0559V20.5733C0.724121 21.084 1.13811 21.4988 1.64966 21.4988H3.21116C3.72193 21.4988 4.1367 21.0848 4.1367 20.5733V19.1302H1.65038V19.1302Z" fill="#454545"/>
<path d="M2.09975 8.52409V8.07935C2.09975 7.67957 1.77572 7.35559 1.37672 7.35559H0.752733C0.408498 7.35559 0.0927349 7.58361 0.0177099 7.91958C-0.0580403 8.25782 0.115213 8.59612 0.42271 8.73635C0.765447 8.89312 1.13748 8.97409 1.51401 8.97409H2.24154L2.43127 8.52331H2.09975V8.52409Z" fill="#ED6262"/>
<path d="M3.14903 12.7633C3.65149 12.7633 4.05881 12.356 4.05881 11.8535C4.05881 11.351 3.65149 10.9437 3.14903 10.9437C2.64658 10.9437 2.23926 11.351 2.23926 11.8535C2.23926 12.356 2.64658 12.7633 3.14903 12.7633Z" fill="#FFBD49"/>
<path d="M4.98052 13.2395C5.34959 13.2395 5.64878 12.9403 5.64878 12.5712C5.64878 12.2021 5.34959 11.903 4.98052 11.903C4.61145 11.903 4.31226 12.2021 4.31226 12.5712C4.31226 12.9403 4.61145 13.2395 4.98052 13.2395Z" fill="#FFDB6F"/>
<path d="M16.8369 16.7151H7.16316C7.01166 16.7151 6.8894 16.8381 6.8894 16.9888C6.8894 17.1403 7.01166 17.2626 7.16316 17.2626H16.8361C16.9876 17.2626 17.1099 17.1396 17.1099 16.9888C17.1107 16.8373 16.9876 16.7151 16.8369 16.7151Z" fill="#6F6F6F"/>
<path d="M16.8369 17.8081H7.16316C7.01166 17.8081 6.8894 17.9311 6.8894 18.0819C6.8894 18.2334 7.01166 18.3556 7.16316 18.3556H16.8361C16.9876 18.3556 17.1099 18.2326 17.1099 18.0819C17.1107 17.9304 16.9876 17.8081 16.8369 17.8081Z" fill="#6F6F6F"/>
<path d="M20.3077 6.61091V6.70465C20.3077 7.0819 19.998 7.38418 19.6132 7.36842C19.2584 7.34594 18.987 7.02868 18.987 6.66641V5.32089C18.987 5.00363 18.723 4.76212 18.4057 4.77038C18.3982 4.77038 18.3982 4.77038 18.3907 4.77038C18.3907 4.77038 18.3907 4.77038 18.3832 4.77038C18.066 4.76289 17.802 5.0044 17.802 5.32089V6.53816C17.802 6.91541 17.4772 7.21769 17.1 7.19444C16.7452 7.17945 16.4737 6.8547 16.4737 6.49992V5.44164C16.4737 5.12438 16.2097 4.86039 15.885 4.86039H15.84C15.5377 4.86039 15.2887 5.1094 15.2887 5.41167V6.78794C15.2887 7.16519 14.9714 7.46669 14.5867 7.45171C14.2319 7.42923 13.9679 7.11197 13.9679 6.7497V4.90463C13.9679 4.61062 13.7114 4.36161 13.4091 4.38409H13.3641C13.0544 4.38409 12.8061 4.63309 12.8061 4.93537V6.82168C12.8061 7.18395 12.5121 7.48545 12.1424 7.48545C11.7876 7.48545 11.4936 7.19893 11.4861 6.84421V5.26095C11.4861 4.89868 11.2146 4.58219 10.8598 4.55894C10.4751 4.54395 10.1653 4.84546 10.1653 5.22271L10.1578 6.68526C10.1578 7.06251 9.84884 7.36402 9.46332 7.34903C9.11532 7.32728 8.85133 7.02128 8.84079 6.67477V4.95862C8.84079 4.60235 8.57303 4.28359 8.21676 4.26261C7.83501 4.24613 7.51997 4.54685 7.51997 4.92488V6.72268C7.50948 7.09094 7.20048 7.38418 6.82168 7.36919C6.46691 7.34671 6.20292 7.02945 6.20292 6.66718V5.32089C6.20292 5.00363 5.93144 4.76212 5.61418 4.77038C5.60668 4.77038 5.60668 4.77038 5.60668 4.77038C5.59919 4.77038 5.59919 4.77038 5.59919 4.77038C5.27444 4.76289 5.01045 5.0044 5.01045 5.32089V6.53816C5.01045 6.91541 4.69319 7.21769 4.31593 7.19444C3.98741 7.18167 3.7429 6.9072 3.70094 6.58916C3.35216 7.31142 3.00643 8.09367 2.67041 8.9292C8.87753 9.41822 15.1139 9.41822 21.3211 8.9292C20.9865 8.09145 20.6475 7.31891 20.3077 6.61091Z" fill="#3AA2EB"/>
</g>
<defs>
<clipPath id="clip0_110_293717">
<rect width="24" height="24" fill="white" transform="translate(0 0.229492)"/>
</clipPath>
</defs>
</svg>
