<svg width="24" height="25" viewBox="0 0 24 25" fill="none" xmlns="http://www.w3.org/2000/svg">
<path fill-rule="evenodd" clip-rule="evenodd" d="M20.0132 9.83981L16.9037 9.84463C13.9899 9.84456 10.3807 9.8358 7.60061 9.82748L4.49083 9.81732C3.69512 9.81451 3.22152 9.81266 3.22152 9.81266L1.98968 9.41673C1.98968 9.41673 1.49288 9.33753 1.50008 8.58155V6.06721C1.50008 5.87144 1.65985 5.7117 1.8556 5.7117H2.56631C3.04806 5.53538 3.94442 5.22253 4.28152 5.02532C5.48999 4.31837 7.54035 3.24341 8.87258 3.24341H11.1394C12.9797 3.24341 14.9198 4.28451 16.3224 5.6655C17.5538 5.71924 21.311 6.13171 22.1401 6.9879C22.2588 7.11048 22.5057 7.2597 22.4999 8.61027V9.41665C22.4999 9.41665 22.4783 9.74067 22.0248 9.81266C21.937 9.82658 21.1778 9.83511 20.0132 9.83981Z" fill="#FFBB00"/>
<path fill-rule="evenodd" clip-rule="evenodd" d="M21.8775 7.79727C21.8588 7.64741 21.82 7.49985 21.7191 7.39564C21.5118 7.18148 20.9489 6.99043 20.3822 6.84374C20.2954 6.82129 20.2094 6.84713 20.1494 6.91365C20.0894 6.98016 20.0725 7.06837 20.1037 7.15233C20.3004 7.68122 20.8112 8.06063 21.4065 8.06063H21.6449C21.7145 8.06063 21.7745 8.0336 21.8206 7.98141C21.8667 7.9292 21.8861 7.86638 21.8775 7.79727Z" fill="#F66615"/>
<path fill-rule="evenodd" clip-rule="evenodd" d="M2.876 6.22258C2.83989 6.23572 2.80374 6.24889 2.76762 6.26211L2.70912 6.28354C2.68204 6.29345 2.65739 6.29781 2.62856 6.29781H2.32031C2.19123 6.29781 2.08594 6.4031 2.08594 6.53218V7.00812C2.08594 7.07371 2.10976 7.13017 2.15672 7.17595C2.2037 7.22173 2.26074 7.24408 2.32632 7.24241C2.7644 7.23118 3.12676 6.90075 3.1881 6.47637C3.20024 6.39247 3.16978 6.3145 3.104 6.261C3.03823 6.20751 2.95568 6.1936 2.876 6.22258Z" fill="#F66615"/>
<path d="M6.04563 11.3778C6.90438 11.3778 7.60053 10.6816 7.60053 9.82285C7.60053 8.9641 6.90438 8.26794 6.04563 8.26794C5.18688 8.26794 4.49072 8.9641 4.49072 9.82285C4.49072 10.6816 5.18688 11.3778 6.04563 11.3778Z" fill="#3E404B"/>
<path d="M18.4582 11.3778C19.317 11.3778 20.0131 10.6816 20.0131 9.82285C20.0131 8.9641 19.317 8.26794 18.4582 8.26794C17.5995 8.26794 16.9033 8.9641 16.9033 9.82285C16.9033 10.6816 17.5995 11.3778 18.4582 11.3778Z" fill="#3E404B"/>
<path d="M11.2825 6.91113C11.135 6.91113 11.0154 7.03073 11.0154 7.17826C11.0154 7.32578 11.135 7.4454 11.2825 7.4454H11.8339C11.9814 7.4454 12.101 7.32578 12.101 7.17826C12.101 7.03073 11.9814 6.91113 11.8339 6.91113H11.2825Z" fill="#3E404B"/>
<path d="M6.04574 10.5246C6.4333 10.5246 6.74748 10.2104 6.74748 9.82284C6.74748 9.43527 6.4333 9.12109 6.04574 9.12109C5.65817 9.12109 5.34399 9.43527 5.34399 9.82284C5.34399 10.2104 5.65817 10.5246 6.04574 10.5246Z" fill="#808285"/>
<path d="M18.4583 10.5246C18.8459 10.5246 19.1601 10.2104 19.1601 9.82284C19.1601 9.43527 18.8459 9.12109 18.4583 9.12109C18.0708 9.12109 17.7566 9.43527 17.7566 9.82284C17.7566 10.2104 18.0708 10.5246 18.4583 10.5246Z" fill="#808285"/>
<path fill-rule="evenodd" clip-rule="evenodd" d="M9.90956 3.82947H8.87245C7.85473 3.82947 6.26751 4.59113 5.16094 5.19991C5.02751 5.27333 4.94426 5.39385 4.92283 5.54463C4.90139 5.69541 4.94778 5.83436 5.05546 5.94204L5.2173 6.10389C5.30858 6.19517 5.41967 6.24118 5.54875 6.24118H9.90956C10.1677 6.24118 10.3783 6.03061 10.3783 5.77244C10.3783 5.28104 10.3783 4.78962 10.3783 4.29821C10.3783 4.04003 10.1677 3.82947 9.90956 3.82947Z" fill="#0087FF"/>
<path fill-rule="evenodd" clip-rule="evenodd" d="M11.0156 4.3132V5.77255C11.0156 6.03073 11.2262 6.24129 11.4844 6.24129H14.8461C15.0499 6.24129 15.2232 6.11759 15.2894 5.92487C15.3556 5.73213 15.2949 5.52803 15.1342 5.40279C14.0927 4.59138 12.807 3.95513 11.524 3.84612C11.3885 3.83461 11.2675 3.87596 11.1673 3.96799C11.0671 4.06004 11.0156 4.17715 11.0156 4.3132Z" fill="#0087FF"/>
<path fill-rule="evenodd" clip-rule="evenodd" d="M7.65909 13.1112L6.38866 12.6132L5.30542 13.1112L9.64503 15.6167L10.7452 14.8929L7.65909 13.1112Z" fill="#A6B8F6"/>
<path fill-rule="evenodd" clip-rule="evenodd" d="M9.64509 16.9769L5.30542 19.4824L6.53516 19.834L7.65909 19.4824L10.7452 17.7007L9.64509 16.9769Z" fill="#A6B8F6"/>
<path fill-rule="evenodd" clip-rule="evenodd" d="M14.3546 16.9769L13.2544 17.7007L16.3405 19.4824L17.2284 19.8633L18.6942 19.4824L14.3546 16.9769Z" fill="#A6B8F6"/>
<path fill-rule="evenodd" clip-rule="evenodd" d="M16.3405 13.1113L13.2544 14.893L14.3545 15.6168L18.6942 13.1113L17.3163 12.6719L16.3405 13.1113Z" fill="#A6B8F6"/>
<path d="M13.2545 14.8929H10.7454C10.0832 14.8929 9.54639 15.4298 9.54639 16.092V16.5016C9.54639 17.1638 10.0832 17.7006 10.7454 17.7006H13.2545C13.9168 17.7006 14.4536 17.1638 14.4536 16.5016V16.092C14.4536 15.4298 13.9168 14.8929 13.2545 14.8929Z" fill="#293E65"/>
<path d="M13.2547 15.8304H10.7453C10.6009 15.8304 10.4839 15.9475 10.4839 16.0919V16.5016C10.4839 16.646 10.6009 16.7631 10.7453 16.7631H13.2547C13.3991 16.7631 13.5162 16.646 13.5162 16.5016V16.0919C13.5162 15.9475 13.3991 15.8304 13.2547 15.8304Z" fill="#A6B8F6"/>
<path fill-rule="evenodd" clip-rule="evenodd" d="M2.72729 11.3778H21.2729V13.1113H2.72729V11.3778Z" fill="#293E65"/>
<path fill-rule="evenodd" clip-rule="evenodd" d="M2.72729 19.4823H21.2729V21.2158H2.72729V19.4823Z" fill="#293E65"/>
</svg>
